<?xml version="1.0" encoding="UTF-8"?>
<svg id="Layer_2" data-name="Layer 2" xmlns="http://www.w3.org/2000/svg" xmlns:xlink="http://www.w3.org/1999/xlink" viewBox="0 0 229.5 254.75">
  <defs>
    <style>
      .cls-1 {
        font-size: 13px;
        letter-spacing: .31em;
      }

      .cls-1, .cls-2, .cls-3, .cls-4, .cls-5, .cls-6, .cls-7, .cls-8, .cls-9, .cls-10, .cls-11, .cls-12 {
        isolation: isolate;
      }

      .cls-1, .cls-2, .cls-10 {
        font-family: CourierNewPS-BoldMT, 'Courier New';
        font-weight: 700;
      }

      .cls-1, .cls-10, .cls-12 {
        fill: #fff;
      }

      .cls-13 {
        fill: url(#linear-gradient-2);
      }

      .cls-14, .cls-8 {
        fill: none;
      }

      .cls-14, .cls-15 {
        stroke: #472684;
      }

      .cls-2 {
        fill: #734eac;
        font-size: 9px;
        letter-spacing: .06em;
      }

      .cls-3 {
        opacity: .18;
      }

      .cls-4 {
        fill: #ecdffc;
      }

      .cls-4, .cls-10, .cls-12 {
        font-size: 11px;
      }

      .cls-4, .cls-12 {
        font-family: CourierNewPSMT, 'Courier New';
      }

      .cls-6 {
        opacity: .5;
      }

      .cls-6, .cls-11, .cls-16 {
        fill: #7226d3;
      }

      .cls-7 {
        opacity: .15;
      }

      .cls-8 {
        opacity: .3;
        stroke: #7226d3;
      }

      .cls-8, .cls-15, .cls-17 {
        stroke-width: 1.5px;
      }

      .cls-9 {
        opacity: .7;
      }

      .cls-15, .cls-17 {
        fill: #1c1917;
      }

      .cls-11 {
        opacity: .9;
      }

      .cls-18 {
        fill: url(#linear-gradient);
      }

      .cls-17 {
        stroke: #512c9a;
      }
    </style>
    <linearGradient id="linear-gradient" x1="-322.88" y1="-11.84" x2="-322.88" y2="-10.84" gradientTransform="translate(5246.75 497.2) scale(16 42)" gradientUnits="userSpaceOnUse">
      <stop offset="0" stop-color="#fff" stop-opacity=".95"/>
      <stop offset="1" stop-color="#bdb1e1" stop-opacity=".8"/>
    </linearGradient>
    <linearGradient id="linear-gradient-2" gradientTransform="translate(5314.75 497.2) scale(16 42)" xlink:href="#linear-gradient"/>
  </defs>
  <g id="Layer_1-2" data-name="Layer 1">
    <path class="cls-18" d="M80.75,0h0c4.42,0,8,3.58,8,8v26c0,4.42-3.58,8-8,8h0c-4.42,0-8-3.58-8-8V8c0-4.42,3.58-8,8-8Z"/>
    <path class="cls-13" d="M148.75,0h0c4.42,0,8,3.58,8,8v26c0,4.42-3.58,8-8,8h0c-4.42,0-8-3.58-8-8V8c0-4.42,3.58-8,8-8Z"/>
    <path class="cls-17" d="M68.97,34.69h92c7.73,0,14,6.27,14,14v14H54.97v-14c0-7.73,6.27-14,14-14Z"/>
    <g class="cls-7">
      <path class="cls-16" d="M80.75,0h0c4.42,0,8,3.58,8,8v26c0,4.42-3.58,8-8,8h0c-4.42,0-8-3.58-8-8V8c0-4.42,3.58-8,8-8Z"/>
    </g>
    <g class="cls-7">
      <path class="cls-16" d="M148.75,0h0C153.17,0,156.75,3.58,156.75,8v26c0,4.42-3.58,8-8,8h0c-4.42,0-8-3.58-8-8V8C140.75,3.58,144.33,0,148.75,0Z"/>
    </g>
    <rect class="cls-15" x=".75" y="62" width="228" height="192" rx="16" ry="16"/>
    <g>
      <path class="cls-16" d="M16.75,62h196c8.83,0,16,7.17,16,16v28H.75v-28c0-8.83,7.17-16,16-16Z"/>
      <g class="cls-5">
        <text class="cls-1" transform="translate(28.03 88.42)"><tspan x="0" y="0">Payload RESERVE</tspan></text>
      </g>
    </g>
    <g>
      <g class="cls-5">
        <text class="cls-2" transform="translate(21.9 124)"><tspan x="0" y="0">MON</tspan></text>
      </g>
      <g class="cls-5">
        <text class="cls-2" transform="translate(54.9 124)"><tspan x="0" y="0">TUE</tspan></text>
      </g>
      <g class="cls-5">
        <text class="cls-2" transform="translate(87.9 124)"><tspan x="0" y="0">WED</tspan></text>
      </g>
      <g class="cls-5">
        <text class="cls-2" transform="translate(120.9 124)"><tspan x="0" y="0">THU</tspan></text>
      </g>
      <g class="cls-5">
        <text class="cls-2" transform="translate(153.9 124)"><tspan x="0" y="0">FRI</tspan></text>
      </g>
      <g class="cls-5">
        <text class="cls-2" transform="translate(186.9 124)"><tspan x="0" y="0">SAT</tspan></text>
      </g>
      <g class="cls-5">
        <text class="cls-2" transform="translate(210.9 124)"><tspan x="0" y="0">SUN</tspan></text>
      </g>
    </g>
    <line class="cls-14" x1="12.75" y1="129" x2="216.75" y2="129"/>
    <g>
      <g class="cls-5">
        <text class="cls-4" transform="translate(27.45 148)"><tspan x="0" y="0">1</tspan></text>
      </g>
      <g class="cls-5">
        <text class="cls-4" transform="translate(60.45 148)"><tspan x="0" y="0">2</tspan></text>
      </g>
      <g class="cls-5">
        <text class="cls-4" transform="translate(93.45 148)"><tspan x="0" y="0">3</tspan></text>
      </g>
      <g class="cls-5">
        <text class="cls-4" transform="translate(126.45 148)"><tspan x="0" y="0">4</tspan></text>
      </g>
      <g class="cls-5">
        <text class="cls-4" transform="translate(159.45 148)"><tspan x="0" y="0">5</tspan></text>
      </g>
      <g class="cls-5">
        <text class="cls-4" transform="translate(192.45 148)"><tspan x="0" y="0">6</tspan></text>
      </g>
      <g class="cls-5">
        <text class="cls-4" transform="translate(216.45 148)"><tspan x="0" y="0">7</tspan></text>
      </g>
      <g class="cls-5">
        <text class="cls-4" transform="translate(27.45 171)"><tspan x="0" y="0">8</tspan></text>
      </g>
      <g class="cls-5">
        <text class="cls-4" transform="translate(60.45 171)"><tspan x="0" y="0">9</tspan></text>
      </g>
      <g class="cls-5">
        <text class="cls-4" transform="translate(90.15 171)"><tspan x="0" y="0">10</tspan></text>
      </g>
      <g class="cls-5">
        <text class="cls-4" transform="translate(123.15 171)"><tspan x="0" y="0">11</tspan></text>
      </g>
      <g class="cls-5">
        <text class="cls-4" transform="translate(156.15 171)"><tspan x="0" y="0">12</tspan></text>
      </g>
      <g class="cls-5">
        <text class="cls-4" transform="translate(189.15 171)"><tspan x="0" y="0">13</tspan></text>
      </g>
      <g class="cls-5">
        <text class="cls-4" transform="translate(213.15 171)"><tspan x="0" y="0">14</tspan></text>
      </g>
      <g class="cls-5">
        <text class="cls-4" transform="translate(24.15 194)"><tspan x="0" y="0">15</tspan></text>
      </g>
      <g class="cls-5">
        <text class="cls-4" transform="translate(57.15 194)"><tspan x="0" y="0">16</tspan></text>
      </g>
      <g class="cls-5">
        <text class="cls-4" transform="translate(24.15 217)"><tspan x="0" y="0">22</tspan></text>
      </g>
      <g class="cls-5">
        <text class="cls-4" transform="translate(57.15 217)"><tspan x="0" y="0">23</tspan></text>
      </g>
      <g class="cls-5">
        <text class="cls-4" transform="translate(90.15 217)"><tspan x="0" y="0">24</tspan></text>
      </g>
      <g class="cls-5">
        <text class="cls-4" transform="translate(123.15 217)"><tspan x="0" y="0">25</tspan></text>
      </g>
      <g class="cls-5">
        <text class="cls-4" transform="translate(24.15 240)"><tspan x="0" y="0">29</tspan></text>
      </g>
      <g class="cls-5">
        <text class="cls-4" transform="translate(57.15 240)"><tspan x="0" y="0">30</tspan></text>
      </g>
      <g class="cls-5">
        <text class="cls-4" transform="translate(90.15 240)"><tspan x="0" y="0">31</tspan></text>
      </g>
    </g>
    <g class="cls-3">
      <rect class="cls-16" x="81.75" y="182" width="30" height="20" rx="5" ry="5"/>
    </g>
    <g class="cls-3">
      <rect class="cls-16" x="114.75" y="182" width="30" height="20" rx="5" ry="5"/>
    </g>
    <g class="cls-3">
      <rect class="cls-16" x="147.75" y="182" width="30" height="20" rx="5" ry="5"/>
    </g>
    <g class="cls-5">
      <text class="cls-12" transform="translate(90.15 196)"><tspan x="0" y="0">17</tspan></text>
    </g>
    <g class="cls-5">
      <text class="cls-12" transform="translate(123.15 196)"><tspan x="0" y="0">18</tspan></text>
    </g>
    <g class="cls-5">
      <text class="cls-12" transform="translate(156.15 196)"><tspan x="0" y="0">19</tspan></text>
    </g>
    <rect class="cls-11" x="177.75" y="182" width="30" height="20" rx="5" ry="5"/>
    <g class="cls-5">
      <text class="cls-10" transform="translate(186.15 196)"><tspan x="0" y="0">20</tspan></text>
    </g>
    <g class="cls-5">
      <text class="cls-4" transform="translate(156.15 217)"><tspan x="0" y="0">26</tspan></text>
    </g>
    <g class="cls-9">
      <circle class="cls-16" cx="162.75" cy="222" r="2.5"/>
    </g>
    <g class="cls-5">
      <text class="cls-4" transform="translate(189.15 217)"><tspan x="0" y="0">27</tspan></text>
    </g>
    <circle class="cls-6" cx="195.75" cy="222" r="2.5"/>
    <g class="cls-5">
      <text class="cls-4" transform="translate(213.15 217)"><tspan x="0" y="0">28</tspan></text>
    </g>
    <g class="cls-5">
      <text class="cls-4" transform="translate(213.15 196.02)"><tspan x="0" y="0">21</tspan></text>
    </g>
    <line class="cls-8" x1="80.75" y1="38" x2="80.75" y2="62"/>
    <line class="cls-8" x1="148.75" y1="38" x2="148.75" y2="62"/>
  </g>
</svg>