<svg width="141" height="89" viewBox="0 0 141 89" fill="none" xmlns="http://www.w3.org/2000/svg">
<path d="M132.76 48.43C131.16 50.07 129.41 54.63 127.86 56.9C118.4 70.78 103.34 82.21 84.81 86.28C74.16 88.62 66.58 88.61 55.89 86.33C36.86 82.27 20.77 69.74 11.59 55.25C6.54997 47.3 2.40997 35.12 0.839972 26.2C0.689972 25.38 0.139978 22.75 0.689978 22.64C5.12998 23.94 9.56664 25.24 14 26.54C17.1866 30.7867 20.3733 35.0333 23.56 39.28C28.3733 34.6133 33.1866 29.9433 38 25.27C39.5 29.6433 41 34.0167 42.5 38.39L42.93 38.76C45.53 37.2867 48.13 35.81 50.73 34.33C55.79 40.39 60.6 46.61 66.38 52.21C73.05 46.88 77.22 39.84 81.39 33.05C85.83 37.4567 90.2733 41.8633 94.72 46.27L99.63 39.88C102.43 41.92 105.23 43.96 108.03 46C111.49 38.72 114.95 31.4367 118.41 24.15C125.117 26.7167 131.82 29.28 138.52 31.84C136.6 37.36 134.68 42.8833 132.76 48.41V48.43Z" fill="white"/>
<path d="M132.72 23.17C134.03 23.68 135.5 24.08 136.77 24.64C138.99 25.61 142.41 27.17 138.94 26.6C136.8 26.25 119.98 19.11 115.5 18.05C112.473 24.7167 109.447 31.3867 106.42 38.06C103.86 36.2267 101.303 34.39 98.75 32.55C97.21 34.5167 95.67 36.48 94.13 38.44C89.4966 34.0333 84.8633 29.6267 80.23 25.22C75.88 32.1 72.09 39.25 66.67 45.6C61.9366 39.72 57.2033 33.84 52.47 27.96L45.53 31.41L45.1 31.04C43.4066 26.26 41.7133 21.48 40.02 16.7C34.7266 21.6933 29.4333 26.69 24.14 31.69C16.25 21.07 12.86 15.71 24.14 28.01C28.56 20.3167 32.9833 12.6233 37.41 4.92999C41.95 10.6433 46.49 16.36 51.03 22.08C54.5833 14.7133 58.14 7.34999 61.7 -0.0100098C63.7333 5.62999 65.7666 11.27 67.8 16.91C74.54 11.83 81.28 6.74999 88.02 1.66999C89.86 7.63666 91.7 13.6033 93.54 19.57C100.187 15.6367 106.833 11.7 113.48 7.75999L115.23 16.83C121.1 18.86 126.98 20.92 132.74 23.18L132.72 23.17Z" fill="white"/>
</svg>
